<svg width="128" height="128" viewBox="0 0 128 128" fill="none" xmlns="http://www.w3.org/2000/svg">
<circle cx="64" cy="64" r="64" fill="#80CCA0"/>
<path d="M69.832 58.5312V128H55.7402V45.582H69.4512L69.832 58.5312ZM95.5781 45.125L95.502 58.2266C94.334 57.9727 93.2168 57.8203 92.1504 57.7695C91.1348 57.668 89.9668 57.6172 88.6465 57.6172C85.3965 57.6172 82.5273 58.125 80.0391 59.1406C77.5508 60.1562 75.4434 61.5781 73.7168 63.4062C71.9902 65.2344 70.6191 67.418 69.6035 69.957C68.6387 72.4453 68.0039 75.1875 67.6992 78.1836L63.7383 80.4688C63.7383 75.4922 64.2207 70.8203 65.1855 66.4531C66.2012 62.0859 67.75 58.2266 69.832 54.875C71.9141 51.4727 74.5547 48.832 77.7539 46.9531C81.0039 45.0234 84.8633 44.0586 89.332 44.0586C90.3477 44.0586 91.5156 44.1855 92.8359 44.4395C94.1562 44.6426 95.0703 44.8711 95.5781 45.125Z" fill="white"/>
</svg>
